<svg width="1200" height="630" viewBox="0 0 1200 630" fill="none" xmlns="http://www.w3.org/2000/svg">
<rect width="1200" height="630" fill="#37404C"/>
<rect x="479.301" y="129.238" width="241.399" height="241.399" rx="30.1748" fill="#37404C"/>
<path fill-rule="evenodd" clip-rule="evenodd" d="M542.251 188.6C549.641 180.819 558.113 175.595 567.654 172.907C574.201 171.061 578.612 165.128 578.612 158.516C578.612 148.491 568.689 141.181 558.763 143.989C551.21 146.121 543.95 149.265 536.99 153.431C522.658 162.003 511.314 173.446 502.957 187.758C499.375 193.895 496.569 200.185 494.527 206.625C491.13 217.357 499.22 228.25 510.797 228.25C518.642 228.25 525.509 223.066 527.345 215.672C529.887 205.437 534.842 196.406 542.251 188.6Z" fill="#E5007D"/>
<path fill-rule="evenodd" clip-rule="evenodd" d="M667.966 296.677C662.667 306.602 655.349 314.398 646.016 320.077C641.899 322.585 637.621 324.512 633.183 325.876C626.482 327.934 621.879 333.908 621.879 340.744C621.879 351.07 632.044 358.649 642.235 355.764C649.674 353.663 656.793 350.604 663.584 346.578C677.879 338.116 689.166 326.736 697.438 312.442C701.169 306.001 704.05 299.329 706.095 292.422C709.2 281.927 700.79 271.516 689.562 271.516C682.109 271.516 675.64 276.231 673.318 283.045C671.741 287.671 670.274 292.354 667.966 296.677Z" fill="#E5007D"/>
<path fill-rule="evenodd" clip-rule="evenodd" d="M542.23 310.262C535.061 302.619 530.174 293.859 527.554 284.003C525.599 276.651 518.759 271.516 510.928 271.516C499.272 271.516 491.118 282.48 494.528 293.289C496.565 299.753 499.359 306.049 502.913 312.172C511.275 326.583 522.625 338.038 536.966 346.53C543.791 350.574 550.904 353.644 558.301 355.756C568.455 358.654 578.612 351.115 578.612 340.849C578.612 334.084 574.105 328.043 567.428 326.105C557.969 323.363 549.565 318.088 542.23 310.262Z" fill="white"/>
<path fill-rule="evenodd" clip-rule="evenodd" d="M646.089 178.837C655.162 184.317 662.335 191.813 667.603 201.319C670.145 205.909 672.071 210.728 673.385 215.776C675.286 223.1 682.018 228.25 689.78 228.25C701.111 228.25 709.292 217.615 706.017 207.062C705.076 204.032 703.967 201.038 702.687 198.077C697.845 186.879 691.128 176.957 682.54 168.306C673.953 159.654 663.964 152.838 652.576 147.861C649.156 146.369 645.673 145.099 642.132 144.058C632.067 141.094 621.879 148.243 621.879 158.474V158.553C621.879 165.208 626.358 171.051 632.899 172.991C637.473 174.346 641.871 176.291 646.089 178.837Z" fill="white"/>
<path d="M280.756 485.883H265.706L249.344 459.545L243.744 463.57V485.883H230.531V423.408H243.744V452.02C244.619 450.795 245.494 449.57 246.369 448.345C247.244 447.12 248.119 445.895 248.994 444.67L265.881 423.408H280.581L258.794 451.058L280.756 485.883ZM314.712 437.233C319.845 437.233 323.958 438.633 327.049 441.433C330.141 444.174 331.687 448.608 331.687 454.733V485.883H318.649V457.97C318.649 454.529 318.037 451.962 316.812 450.27C315.587 448.52 313.633 447.645 310.949 447.645C306.983 447.645 304.27 449.016 302.812 451.758C301.353 454.441 300.624 458.32 300.624 463.395V485.883H287.587V438.108H297.562L299.312 444.233H300.012C301.062 442.599 302.345 441.287 303.862 440.295C305.378 439.245 307.07 438.487 308.937 438.02C310.803 437.495 312.728 437.233 314.712 437.233ZM388.494 461.908C388.494 465.874 387.94 469.404 386.832 472.495C385.782 475.587 384.236 478.212 382.194 480.37C380.211 482.47 377.79 484.074 374.932 485.183C372.073 486.233 368.836 486.758 365.219 486.758C361.894 486.758 358.802 486.233 355.944 485.183C353.144 484.074 350.723 482.47 348.682 480.37C346.64 478.212 345.036 475.587 343.869 472.495C342.761 469.404 342.207 465.874 342.207 461.908C342.207 456.599 343.14 452.137 345.007 448.52C346.873 444.845 349.557 442.045 353.057 440.12C356.557 438.195 360.698 437.233 365.482 437.233C369.973 437.233 373.94 438.195 377.382 440.12C380.823 442.045 383.536 444.845 385.519 448.52C387.502 452.137 388.494 456.599 388.494 461.908ZM355.507 461.908C355.507 465.058 355.827 467.712 356.469 469.87C357.169 471.97 358.248 473.574 359.707 474.683C361.165 475.733 363.061 476.258 365.394 476.258C367.727 476.258 369.594 475.733 370.994 474.683C372.452 473.574 373.502 471.97 374.144 469.87C374.844 467.712 375.194 465.058 375.194 461.908C375.194 458.758 374.844 456.133 374.144 454.033C373.502 451.933 372.452 450.358 370.994 449.308C369.536 448.258 367.64 447.733 365.307 447.733C361.865 447.733 359.357 448.929 357.782 451.32C356.265 453.654 355.507 457.183 355.507 461.908ZM433.172 469.17C432.939 468.179 432.589 466.72 432.122 464.795C431.714 462.812 431.247 460.712 430.722 458.495C430.197 456.22 429.702 454.149 429.235 452.283C428.768 450.358 428.447 448.958 428.272 448.083H427.922C427.747 448.958 427.427 450.358 426.96 452.283C426.552 454.149 426.085 456.22 425.56 458.495C425.035 460.712 424.539 462.812 424.072 464.795C423.606 466.779 423.256 468.295 423.022 469.345L419.172 485.883H405.172L391.61 438.108H404.56L410.072 459.283C410.481 460.741 410.831 462.491 411.122 464.533C411.472 466.574 411.793 468.558 412.085 470.483C412.377 472.349 412.581 473.837 412.697 474.945H413.047C413.106 474.129 413.222 473.049 413.397 471.708C413.572 470.308 413.777 468.879 414.01 467.42C414.302 465.962 414.535 464.649 414.71 463.483C414.943 462.258 415.118 461.441 415.235 461.033L421.097 438.108H435.447L441.047 461.033C441.281 461.849 441.543 463.162 441.835 464.97C442.185 466.779 442.477 468.616 442.71 470.483C443.002 472.349 443.147 473.837 443.147 474.945H443.497C443.614 473.954 443.818 472.524 444.11 470.658C444.402 468.733 444.722 466.72 445.072 464.62C445.481 462.52 445.889 460.741 446.297 459.283L451.985 438.108H464.76L451.022 485.883H436.847L433.172 469.17ZM485.536 485.883H472.499V419.383H485.536V485.883ZM518.846 437.233C523.28 437.233 527.071 438.079 530.221 439.77C533.43 441.462 535.909 443.912 537.659 447.12C539.409 450.329 540.284 454.266 540.284 458.933V465.233H509.484C509.601 468.908 510.68 471.795 512.721 473.895C514.821 475.995 517.709 477.045 521.384 477.045C524.476 477.045 527.276 476.754 529.784 476.17C532.292 475.529 534.888 474.566 537.571 473.283V483.345C535.238 484.512 532.759 485.358 530.134 485.883C527.567 486.466 524.446 486.758 520.771 486.758C515.988 486.758 511.759 485.883 508.084 484.133C504.409 482.324 501.521 479.612 499.421 475.995C497.321 472.379 496.271 467.829 496.271 462.345C496.271 456.745 497.205 452.108 499.071 448.433C500.996 444.699 503.651 441.899 507.034 440.033C510.417 438.166 514.355 437.233 518.846 437.233ZM518.934 446.508C516.426 446.508 514.326 447.324 512.634 448.958C511.001 450.591 510.038 453.129 509.746 456.57H528.034C528.034 454.645 527.684 452.924 526.984 451.408C526.342 449.891 525.351 448.695 524.009 447.82C522.667 446.945 520.976 446.508 518.934 446.508ZM565.993 486.758C560.685 486.758 556.339 484.687 552.956 480.545C549.631 476.345 547.968 470.191 547.968 462.083C547.968 453.916 549.66 447.733 553.043 443.533C556.427 439.333 560.86 437.233 566.343 437.233C568.618 437.233 570.631 437.554 572.381 438.195C574.131 438.779 575.618 439.595 576.843 440.645C578.127 441.695 579.206 442.891 580.081 444.233H580.518C580.343 443.299 580.139 441.958 579.906 440.208C579.672 438.399 579.556 436.562 579.556 434.695V419.383H592.593V485.883H582.618L580.081 479.67H579.556C578.739 480.954 577.689 482.149 576.406 483.258C575.181 484.308 573.722 485.154 572.031 485.795C570.339 486.437 568.327 486.758 565.993 486.758ZM570.543 476.345C574.16 476.345 576.697 475.295 578.156 473.195C579.614 471.037 580.372 467.829 580.431 463.57V462.17C580.431 457.504 579.702 453.945 578.243 451.495C576.843 449.045 574.218 447.82 570.368 447.82C567.51 447.82 565.264 449.074 563.631 451.583C561.997 454.033 561.181 457.591 561.181 462.258C561.181 466.924 561.997 470.454 563.631 472.845C565.264 475.179 567.568 476.345 570.543 476.345ZM621.714 437.233C624.631 437.233 627.256 437.816 629.589 438.983C631.923 440.149 633.906 441.899 635.539 444.233H635.889L636.939 438.108H647.964V485.97C647.964 490.52 647.06 494.341 645.252 497.433C643.502 500.524 640.848 502.858 637.289 504.433C633.731 506.066 629.327 506.883 624.077 506.883C620.694 506.883 617.544 506.679 614.627 506.27C611.769 505.862 608.969 505.133 606.227 504.083V493.67C608.21 494.487 610.194 495.158 612.177 495.683C614.219 496.266 616.289 496.674 618.389 496.908C620.548 497.199 622.706 497.345 624.864 497.345C628.248 497.345 630.756 496.441 632.389 494.633C634.081 492.824 634.927 490.112 634.927 486.495V485.533C634.927 484.541 634.956 483.52 635.014 482.47C635.131 481.42 635.219 480.487 635.277 479.67H634.927C633.294 482.179 631.339 483.987 629.064 485.095C626.789 486.204 624.223 486.758 621.364 486.758C615.706 486.758 611.273 484.599 608.064 480.283C604.914 475.908 603.339 469.841 603.339 462.083C603.339 456.833 604.069 452.37 605.527 448.695C606.985 444.962 609.085 442.133 611.827 440.208C614.627 438.224 617.923 437.233 621.714 437.233ZM625.827 447.82C623.785 447.82 622.064 448.374 620.664 449.483C619.323 450.533 618.302 452.137 617.602 454.295C616.96 456.395 616.639 459.049 616.639 462.258C616.639 467.041 617.398 470.629 618.914 473.02C620.431 475.354 622.794 476.52 626.002 476.52C627.694 476.52 629.152 476.316 630.377 475.908C631.602 475.441 632.594 474.712 633.352 473.72C634.169 472.67 634.781 471.329 635.189 469.695C635.598 468.062 635.802 466.079 635.802 463.745V462.17C635.802 458.729 635.452 455.958 634.752 453.858C634.052 451.758 632.973 450.241 631.514 449.308C630.056 448.316 628.16 447.82 625.827 447.82ZM681.285 437.233C685.719 437.233 689.51 438.079 692.66 439.77C695.869 441.462 698.348 443.912 700.098 447.12C701.848 450.329 702.723 454.266 702.723 458.933V465.233H671.923C672.04 468.908 673.119 471.795 675.16 473.895C677.26 475.995 680.148 477.045 683.823 477.045C686.915 477.045 689.715 476.754 692.223 476.17C694.731 475.529 697.327 474.566 700.01 473.283V483.345C697.677 484.512 695.198 485.358 692.573 485.883C690.006 486.466 686.885 486.758 683.21 486.758C678.427 486.758 674.198 485.883 670.523 484.133C666.848 482.324 663.96 479.612 661.86 475.995C659.76 472.379 658.71 467.829 658.71 462.345C658.71 456.745 659.644 452.108 661.51 448.433C663.435 444.699 666.09 441.899 669.473 440.033C672.856 438.166 676.794 437.233 681.285 437.233ZM681.373 446.508C678.865 446.508 676.765 447.324 675.073 448.958C673.44 450.591 672.477 453.129 672.185 456.57H690.473C690.473 454.645 690.123 452.924 689.423 451.408C688.781 449.891 687.79 448.695 686.448 447.82C685.106 446.945 683.415 446.508 681.373 446.508ZM750.112 485.883H737.074V423.408H772.862V434.258H750.112V450.358H771.287V461.208H750.112V485.883ZM827.447 461.908C827.447 465.874 826.893 469.404 825.784 472.495C824.734 475.587 823.188 478.212 821.147 480.37C819.163 482.47 816.743 484.074 813.884 485.183C811.026 486.233 807.788 486.758 804.172 486.758C800.847 486.758 797.755 486.233 794.897 485.183C792.097 484.074 789.676 482.47 787.634 480.37C785.593 478.212 783.988 475.587 782.822 472.495C781.713 469.404 781.159 465.874 781.159 461.908C781.159 456.599 782.093 452.137 783.959 448.52C785.826 444.845 788.509 442.045 792.009 440.12C795.509 438.195 799.651 437.233 804.434 437.233C808.926 437.233 812.893 438.195 816.334 440.12C819.776 442.045 822.488 444.845 824.472 448.52C826.455 452.137 827.447 456.599 827.447 461.908ZM794.459 461.908C794.459 465.058 794.78 467.712 795.422 469.87C796.122 471.97 797.201 473.574 798.659 474.683C800.118 475.733 802.013 476.258 804.347 476.258C806.68 476.258 808.547 475.733 809.947 474.683C811.405 473.574 812.455 471.97 813.097 469.87C813.797 467.712 814.147 465.058 814.147 461.908C814.147 458.758 813.797 456.133 813.097 454.033C812.455 451.933 811.405 450.358 809.947 449.308C808.488 448.258 806.593 447.733 804.259 447.733C800.818 447.733 798.309 448.929 796.734 451.32C795.218 453.654 794.459 457.183 794.459 461.908ZM864.909 437.233C865.551 437.233 866.309 437.262 867.184 437.32C868.059 437.379 868.759 437.466 869.284 437.583L868.321 449.833C867.913 449.716 867.301 449.629 866.484 449.57C865.726 449.454 865.055 449.395 864.471 449.395C862.78 449.395 861.146 449.629 859.571 450.095C857.996 450.504 856.567 451.174 855.284 452.108C854.059 453.041 853.067 454.295 852.309 455.87C851.609 457.387 851.259 459.283 851.259 461.558V485.883H838.221V438.108H848.109L850.034 446.158H850.646C851.58 444.524 852.746 443.037 854.146 441.695C855.546 440.354 857.151 439.274 858.959 438.458C860.826 437.641 862.809 437.233 864.909 437.233ZM892.588 437.233C895.505 437.233 898.13 437.816 900.463 438.983C902.797 440.149 904.78 441.899 906.413 444.233H906.763L907.813 438.108H918.838V485.97C918.838 490.52 917.934 494.341 916.126 497.433C914.376 500.524 911.722 502.858 908.163 504.433C904.605 506.066 900.201 506.883 894.951 506.883C891.568 506.883 888.418 506.679 885.501 506.27C882.643 505.862 879.843 505.133 877.101 504.083V493.67C879.084 494.487 881.068 495.158 883.051 495.683C885.093 496.266 887.163 496.674 889.263 496.908C891.422 497.199 893.58 497.345 895.738 497.345C899.122 497.345 901.63 496.441 903.263 494.633C904.955 492.824 905.801 490.112 905.801 486.495V485.533C905.801 484.541 905.83 483.52 905.888 482.47C906.005 481.42 906.093 480.487 906.151 479.67H905.801C904.168 482.179 902.213 483.987 899.938 485.095C897.663 486.204 895.097 486.758 892.238 486.758C886.58 486.758 882.147 484.599 878.938 480.283C875.788 475.908 874.213 469.841 874.213 462.083C874.213 456.833 874.943 452.37 876.401 448.695C877.859 444.962 879.959 442.133 882.701 440.208C885.501 438.224 888.797 437.233 892.588 437.233ZM896.701 447.82C894.659 447.82 892.938 448.374 891.538 449.483C890.197 450.533 889.176 452.137 888.476 454.295C887.834 456.395 887.513 459.049 887.513 462.258C887.513 467.041 888.272 470.629 889.788 473.02C891.305 475.354 893.668 476.52 896.876 476.52C898.568 476.52 900.026 476.316 901.251 475.908C902.476 475.441 903.468 474.712 904.226 473.72C905.043 472.67 905.655 471.329 906.063 469.695C906.472 468.062 906.676 466.079 906.676 463.745V462.17C906.676 458.729 906.326 455.958 905.626 453.858C904.926 451.758 903.847 450.241 902.388 449.308C900.93 448.316 899.034 447.82 896.701 447.82ZM952.159 437.233C956.593 437.233 960.384 438.079 963.534 439.77C966.743 441.462 969.222 443.912 970.972 447.12C972.722 450.329 973.597 454.266 973.597 458.933V465.233H942.797C942.914 468.908 943.993 471.795 946.034 473.895C948.134 475.995 951.022 477.045 954.697 477.045C957.789 477.045 960.589 476.754 963.097 476.17C965.605 475.529 968.201 474.566 970.884 473.283V483.345C968.551 484.512 966.072 485.358 963.447 485.883C960.88 486.466 957.759 486.758 954.084 486.758C949.301 486.758 945.072 485.883 941.397 484.133C937.722 482.324 934.834 479.612 932.734 475.995C930.634 472.379 929.584 467.829 929.584 462.345C929.584 456.745 930.518 452.108 932.384 448.433C934.309 444.699 936.964 441.899 940.347 440.033C943.73 438.166 947.668 437.233 952.159 437.233ZM952.247 446.508C949.739 446.508 947.639 447.324 945.947 448.958C944.314 450.591 943.351 453.129 943.059 456.57H961.347C961.347 454.645 960.997 452.924 960.297 451.408C959.655 449.891 958.664 448.695 957.322 447.82C955.98 446.945 954.289 446.508 952.247 446.508Z" fill="white"/>
</svg>
